<svg xmlns="http://www.w3.org/2000/svg" viewBox="0 0 26.17 18.94"><defs><style>.cls-1{fill:#fff;}</style></defs><g id="Layer_2" data-name="Layer 2"><g id="Layer_1-2" data-name="Layer 1"><path class="cls-1" d="M0,17.67V5.48l.11,0c.4-.1.82-.17,1.21-.3A5.78,5.78,0,0,0,3.92,3.2L4,3.05V7a.83.83,0,0,0,0,.15A.54.54,0,0,0,4.2,7L7.67,2.92,9.89.29A.68.68,0,0,1,10.43,0c.48,0,1,0,1.44,0h4.42c.14,0,.16.07.16.19V7h5.71V0h4V14.9a3.29,3.29,0,0,0-4,1V10.66H16.45v7.07h-.9l-4.45,0a.94.94,0,0,1-.78-.28l-2-2.23-4-4.63c-.08-.09-.18-.17-.28-.27v7.39H.11ZM7.89,8.41l4.49,5.06V3.12Z"/><path class="cls-1" d="M24.78,18.94a1.22,1.22,0,0,1-1.28-1.28,1.26,1.26,0,0,1,1.26-1.3,1.29,1.29,0,0,1,1.32,1.29A1.27,1.27,0,0,1,24.78,18.94Z"/></g></g></svg>